<svg width="120" height="40" viewBox="0 0 120 40" fill="none" xmlns="http://www.w3.org/2000/svg">
<g clip-path="url(#clip0_4_73)">
<path d="M112 0H8C3.58172 0 0 3.58172 0 8V32C0 36.4183 3.58172 40 8 40H112C116.418 40 120 36.4183 120 32V8C120 3.58172 116.418 0 112 0Z" fill="#E0E0E0"/>
<path d="M22.73 8.14404C22.8236 9.36216 22.4375 10.5686 21.654 11.506C21.2783 11.9723 20.8016 12.3473 20.26 12.6026C19.7183 12.8579 19.1258 12.987 18.527 12.98C18.4887 12.3943 18.5667 11.8067 18.7563 11.2512C18.9459 10.6957 19.2435 10.1831 19.632 9.74304C20.4274 8.84013 21.5332 8.26936 22.73 8.14404ZM24.917 17.007C24.5191 17.7055 24.3048 18.4933 24.294 19.297C24.295 20.202 24.564 21.086 25.064 21.839C25.5661 22.5933 26.279 23.1831 27.114 23.535C26.7856 24.5989 26.2908 25.604 25.648 26.513C24.784 27.802 23.878 29.06 22.44 29.083C21.756 29.1 21.295 28.903 20.814 28.699C20.312 28.486 19.789 28.264 18.971 28.264C18.103 28.264 17.557 28.494 17.031 28.714C16.575 28.905 16.134 29.09 15.513 29.116C14.144 29.166 13.098 27.741 12.203 26.464C10.413 23.857 9.01898 19.118 10.887 15.894C11.32 15.1213 11.9452 14.4735 12.702 14.0133C13.4589 13.5531 14.3217 13.296 15.207 13.267C15.985 13.25 16.73 13.548 17.383 13.81C17.883 14.01 18.329 14.189 18.694 14.189C19.015 14.189 19.448 14.017 19.954 13.817C20.749 13.502 21.724 13.117 22.715 13.221C23.4748 13.2449 24.2186 13.4451 24.8878 13.8057C25.557 14.1663 26.1332 14.6776 26.571 15.299C25.8844 15.7197 25.3154 16.3073 24.917 17.007Z" fill="#595959"/>
<path d="M72.506 27.749C70.927 27.749 69.772 26.97 69.638 25.784H67.801C67.917 27.947 69.713 29.316 72.373 29.316C75.217 29.316 77.004 27.914 77.004 25.676C77.004 23.928 75.982 22.942 73.52 22.362L72.199 22.038C70.653 21.658 70.021 21.16 70.021 20.314C70.021 19.254 71.011 18.524 72.456 18.524C73.903 18.524 74.892 19.244 75.001 20.438H76.813C76.754 18.375 75.017 16.958 72.482 16.958C69.921 16.958 68.117 18.375 68.117 20.438C68.117 22.105 69.139 23.132 71.342 23.662L72.897 24.036C74.452 24.416 75.108 24.972 75.108 25.901C75.108 26.971 74.019 27.749 72.506 27.749Z" fill="#404040"/>
<path fill-rule="evenodd" clip-rule="evenodd" d="M36.656 25.8871H41.228L42.326 29.1191H44.296L39.964 17.1591H37.952L33.622 29.1191H35.558L36.656 25.8871ZM40.754 24.3951H37.13L38.917 19.1491H38.967L40.754 24.3951ZM50 29.2071C52.196 29.2071 53.65 27.4671 53.65 24.7571C53.65 22.0551 52.187 20.3051 49.968 20.3051C49.4079 20.2873 48.8535 20.4213 48.3633 20.6927C47.873 20.9641 47.4652 21.363 47.183 21.8471H47.15V20.3971H45.412V32.0001H47.207V27.6801H47.249C47.5175 28.1676 47.918 28.5696 48.4046 28.8399C48.8912 29.1102 49.4442 29.2368 50 29.2071ZM49.494 21.8311C50.89 21.8311 51.805 22.9911 51.805 24.7571C51.805 26.5381 50.89 27.6901 49.495 27.6901C48.123 27.6901 47.2 26.5141 47.2 24.7571C47.2 23.0161 48.122 21.8311 49.494 21.8311ZM63.276 24.7571C63.276 27.4671 61.821 29.2071 59.626 29.2071C59.0705 29.2358 58.5182 29.1082 58.0317 28.8386C57.5452 28.569 57.1441 28.1683 56.874 27.6821H56.832V32.0001H55.037V20.3971H56.775V21.8471H56.808C57.0892 21.362 57.4967 20.9624 57.9872 20.6908C58.4777 20.4193 59.0327 20.2859 59.593 20.3051C61.813 20.3051 63.276 22.0551 63.276 24.7571ZM61.43 24.7571C61.43 22.9911 60.515 21.8311 59.12 21.8311C57.748 21.8311 56.825 23.0161 56.825 24.7571C56.825 26.5141 57.747 27.6901 59.119 27.6901C60.515 27.6901 61.43 26.5381 61.43 24.7571Z" fill="#404040"/>
<path d="M80.882 18.335V20.398H82.545V21.816H80.882V26.623C80.882 27.369 81.215 27.717 81.946 27.717C82.144 27.714 82.341 27.7 82.536 27.676V29.085C82.2077 29.1462 81.874 29.174 81.54 29.168C79.769 29.168 79.078 28.505 79.078 26.814V21.816H77.807V20.398H79.078V18.335H80.882Z" fill="#404040"/>
<path fill-rule="evenodd" clip-rule="evenodd" d="M87.658 20.2889C85.13 20.2889 83.51 22.0129 83.51 24.7559C83.51 27.5069 85.114 29.2239 87.658 29.2239C90.202 29.2239 91.807 27.5069 91.807 24.7559C91.807 22.0129 90.195 20.2889 87.658 20.2889ZM87.658 21.7629C89.112 21.7629 89.978 22.8739 89.978 24.7559C89.978 26.6459 89.112 27.7479 87.658 27.7479C86.203 27.7479 85.339 26.6459 85.339 24.7559C85.339 22.8829 86.203 21.7629 87.658 21.7629Z" fill="#404040"/>
<path d="M93.283 20.396H94.995V21.881H95.037C95.1545 21.4174 95.4275 21.0081 95.8104 20.7214C96.1934 20.4348 96.663 20.2882 97.141 20.306C97.348 20.304 97.554 20.326 97.756 20.372V22.046C97.4946 21.9664 97.2221 21.9299 96.949 21.938C96.5565 21.9227 96.1697 22.0352 95.8467 22.2586C95.5237 22.4821 95.282 22.8044 95.158 23.177C95.076 23.424 95.048 23.686 95.078 23.944V29.116H93.283V20.396Z" fill="#404040"/>
<path fill-rule="evenodd" clip-rule="evenodd" d="M102.268 29.2239C104.246 29.2239 105.792 28.1379 106.034 26.5539H104.329C104.17 26.9486 103.888 27.2812 103.524 27.5019C103.159 27.7219 102.734 27.8209 102.31 27.7819C101.987 27.7937 101.666 27.7368 101.366 27.6151C101.067 27.4934 100.797 27.3096 100.574 27.0759C100.352 26.8424 100.182 26.5642 100.075 26.2599C99.9689 25.9556 99.9286 25.6321 99.957 25.3109V25.2029H106.134V24.5899C106.134 21.9459 104.613 20.2889 102.193 20.2889C99.733 20.2889 98.144 22.0629 98.144 24.7979C98.144 27.5239 99.724 29.2239 102.268 29.2239ZM104.338 23.9519H99.965C99.9648 23.6603 100.022 23.3714 100.134 23.102C100.246 22.8326 100.409 22.5879 100.616 22.3819C100.824 22.1764 101.07 22.0138 101.34 21.9035C101.611 21.7932 101.901 21.7373 102.193 21.7389C102.483 21.7333 102.77 21.7872 103.038 21.8973C103.306 22.0074 103.548 22.1713 103.75 22.3789C103.952 22.5861 104.108 22.8329 104.209 23.1037C104.31 23.3745 104.354 23.6633 104.338 23.9519Z" fill="#404040"/>
<path d="M36.627 10.584H35.857V11.364H36.651C37.454 11.364 37.914 11.715 37.914 12.284C37.914 12.846 37.426 13.244 36.679 13.244C35.931 13.244 35.425 12.89 35.373 12.34H34.513C34.5389 12.5954 34.6161 12.8428 34.74 13.0676C34.8639 13.2924 35.0319 13.4898 35.234 13.648C35.4362 13.807 35.6684 13.9237 35.9166 13.9912C36.1648 14.0587 36.4241 14.0756 36.679 14.041C37.0616 14.0879 37.4494 14.0193 37.7927 13.844C38.1359 13.6686 38.4188 13.3945 38.605 13.057C38.728 12.833 38.805 12.587 38.831 12.332C38.8435 11.9782 38.7158 11.6337 38.4758 11.3734C38.2357 11.1132 37.9027 10.9581 37.549 10.942V10.875C37.8474 10.8083 38.1141 10.6415 38.3046 10.4023C38.495 10.163 38.5979 9.8658 38.596 9.56001C38.596 8.64801 37.798 8.01501 36.663 8.01501C36.2928 7.96726 35.9169 8.03501 35.5867 8.20899C35.2564 8.38297 34.988 8.65469 34.818 8.98701C34.706 9.20701 34.64 9.44901 34.626 9.69601H35.472C35.4946 9.49065 35.5789 9.29698 35.7139 9.14057C35.8489 8.98417 36.0282 8.87239 36.228 8.82001C36.3607 8.78497 36.4991 8.77681 36.635 8.79601C37.314 8.79601 37.714 9.13801 37.714 9.66801C37.7083 9.80152 37.6749 9.93239 37.616 10.0523C37.5571 10.1723 37.4739 10.2787 37.3717 10.3648C37.2695 10.4509 37.1506 10.5149 37.0224 10.5526C36.8942 10.5903 36.7595 10.601 36.627 10.584Z" fill="#404040"/>
<path fill-rule="evenodd" clip-rule="evenodd" d="M41.428 11.378C40.395 11.442 39.811 11.892 39.811 12.672C39.8116 12.8555 39.8508 13.0368 39.9259 13.2041C40.0011 13.3715 40.1105 13.5212 40.2472 13.6436C40.3839 13.7659 40.5448 13.8582 40.7194 13.9145C40.8941 13.9707 41.0786 13.9896 41.261 13.97C41.5193 13.9817 41.7761 13.925 42.0054 13.8056C42.2347 13.6862 42.4285 13.5083 42.567 13.29H42.635V13.899H43.462V10.936C43.462 10.02 42.847 9.479 41.757 9.479C40.77 9.479 40.067 9.956 39.978 10.701H40.81C40.906 10.395 41.237 10.219 41.716 10.219C42.304 10.219 42.606 10.478 42.606 10.936V11.31L41.428 11.378ZM42.607 11.939V12.302C42.5981 12.4393 42.5614 12.5734 42.4994 12.6961C42.4373 12.8189 42.351 12.9279 42.2457 13.0164C42.1404 13.105 42.0183 13.1713 41.8867 13.2115C41.7551 13.2516 41.6168 13.2647 41.48 13.25C41.013 13.25 40.674 13.023 40.674 12.633C40.674 12.25 40.945 12.047 41.544 12.007L42.607 11.939Z" fill="#404040"/>
<path d="M45.737 10.2859V13.9019H44.879V9.56494H47.743V10.2849H45.737V10.2859Z" fill="#404040"/>
<path fill-rule="evenodd" clip-rule="evenodd" d="M51.152 13.974C52.25 13.974 52.949 13.11 52.949 11.732C52.949 10.354 52.249 9.49298 51.143 9.49298C50.8648 9.48636 50.5902 9.55649 50.3492 9.69567C50.1083 9.83485 49.9103 10.0377 49.777 10.282H49.713V9.56498H48.887V15.344H49.745V13.245H49.813C49.9434 13.4816 50.1388 13.6759 50.376 13.8051C50.6133 13.9342 50.8825 13.9929 51.152 13.974ZM50.904 10.262C51.631 10.262 52.066 10.816 52.066 11.732C52.066 12.652 51.631 13.205 50.9 13.205C50.181 13.205 49.73 12.639 49.73 11.735C49.73 10.828 50.181 10.262 50.904 10.262Z" fill="#404040"/>
<path d="M54.092 15.456V14.719C54.185 14.73 54.278 14.736 54.372 14.735C54.5547 14.7483 54.7359 14.6938 54.881 14.5821C55.0262 14.4703 55.1251 14.3091 55.159 14.129L55.223 13.919L53.648 9.56504H54.583L55.673 13.01H55.742L56.829 9.56504H57.739L56.117 14.081C55.746 15.137 55.334 15.475 54.447 15.475C54.3284 15.474 54.21 15.4673 54.092 15.455V15.456ZM59.265 12.672H58.41C58.49 13.548 59.261 13.982 60.211 13.982C61.286 13.982 61.989 13.437 61.989 12.612C61.9919 12.3734 61.9068 12.142 61.7501 11.962C61.5933 11.782 61.3758 11.666 61.139 11.636V11.569C61.3376 11.5216 61.5139 11.4076 61.6387 11.2461C61.7635 11.0845 61.8292 10.8851 61.825 10.681C61.825 9.94804 61.234 9.48204 60.2 9.48204C59.8051 9.42842 59.4049 9.53118 59.0847 9.76844C58.7645 10.0057 58.5497 10.3586 58.486 10.752H59.313C59.369 10.41 59.72 10.207 60.2 10.207C60.727 10.207 60.983 10.45 60.983 10.768C60.983 11.131 60.719 11.33 60.2 11.33H59.56V11.995H60.211C60.819 11.995 61.134 12.194 61.134 12.612C61.134 13.002 60.783 13.254 60.211 13.254C59.708 13.254 59.349 13.054 59.265 12.672ZM63.22 13.902V9.56504H64.072V12.548H64.139L66.144 9.56504H66.995V13.902H66.145V10.903H66.08L64.072 13.903H63.221L63.22 13.902ZM70.311 10.286H71.681V9.56604H68.082V10.286H69.452V13.902H70.312L70.311 10.286Z" fill="#404040"/>
<path fill-rule="evenodd" clip-rule="evenodd" d="M76.304 12.728C76.1872 13.1252 75.9343 13.4687 75.5896 13.6981C75.245 13.9276 74.8305 14.0285 74.419 13.983C74.1325 13.9905 73.8477 13.9357 73.5845 13.8224C73.3212 13.7092 73.0856 13.5401 72.894 13.327C72.703 13.1142 72.5607 12.8623 72.4769 12.589C72.3932 12.3156 72.37 12.0272 72.409 11.744C72.3706 11.4599 72.394 11.1709 72.4776 10.8967C72.5611 10.6224 72.7028 10.3695 72.893 10.155C73.0835 9.93988 73.3179 9.76821 73.5805 9.65158C73.8431 9.53495 74.1277 9.47609 74.415 9.47898C75.625 9.47898 76.356 10.303 76.356 11.665V11.964H73.285V12.011C73.2711 12.1705 73.2909 12.3312 73.343 12.4826C73.3952 12.634 73.4785 12.7728 73.5877 12.8899C73.6968 13.0071 73.8293 13.1 73.9767 13.1628C74.124 13.2255 74.2829 13.2565 74.443 13.254C74.648 13.2781 74.8556 13.2411 75.0396 13.1475C75.2236 13.0539 75.3758 12.9079 75.477 12.728H76.304ZM73.284 11.331H75.481C75.4978 11.1114 75.4446 10.8921 75.3291 10.7045C75.2136 10.517 75.0417 10.3708 74.838 10.287C74.7028 10.2309 74.5573 10.2037 74.411 10.207C74.2629 10.2054 74.116 10.2333 73.9789 10.2891C73.8418 10.345 73.7171 10.4276 73.6123 10.5322C73.5075 10.6367 73.4245 10.7611 73.3683 10.8981C73.3121 11.0351 73.2838 11.1819 73.285 11.33L73.284 11.331ZM81.909 9.56498H79.947V13.902H81.928C82.883 13.902 83.454 13.408 83.454 12.652C83.4575 12.3976 83.3628 12.1517 83.1896 11.9654C83.0163 11.7792 82.7779 11.6669 82.524 11.652V11.584C82.7325 11.5379 82.9189 11.4219 83.0524 11.2553C83.1859 11.0887 83.2585 10.8815 83.258 10.668C83.258 9.99498 82.76 9.56498 81.909 9.56498ZM80.799 11.345V10.222H81.744C82.2 10.222 82.416 10.442 82.416 10.78C82.416 11.147 82.168 11.345 81.649 11.345H80.799ZM80.799 13.245V11.975H81.709C82.288 11.975 82.595 12.178 82.595 12.612C82.595 13.022 82.324 13.245 81.816 13.245H80.798H80.799Z" fill="#404040"/>
</g>
<defs>
<clipPath id="clip0_4_73">
<rect width="120" height="40" fill="white"/>
</clipPath>
</defs>
</svg>
