<svg width="120" height="40" viewBox="0 0 120 40" fill="none" xmlns="http://www.w3.org/2000/svg">
<g clip-path="url(#clip0_4_59)">
<path d="M112 0H8C3.58172 0 0 3.58172 0 8V32C0 36.4183 3.58172 40 8 40H112C116.418 40 120 36.4183 120 32V8C120 3.58172 116.418 0 112 0Z" fill="#E0E0E0"/>
<path d="M81.512 18.288V27.094C81.512 28.372 82.107 29.01 83.297 29.079C83.503 29.079 83.731 29.056 83.96 29.01C84.189 28.965 84.395 28.92 84.555 28.85L84.349 27.619C84.1995 27.6576 84.0463 27.6804 83.892 27.687C83.64 27.687 83.48 27.619 83.365 27.482C83.251 27.345 83.205 27.117 83.205 26.798V18.15L81.512 18.288ZM64.554 26.638C64.944 27.414 65.515 27.984 66.247 28.395C67.002 28.805 67.872 29.011 68.925 29.011C69.543 29.011 70.161 28.942 70.801 28.806C71.426 28.6733 72.033 28.4665 72.609 28.19V23.97H68.627V25.292H70.939V27.322C70.6338 27.4329 70.3197 27.5172 70 27.574C69.6683 27.6382 69.3309 27.6687 68.993 27.665C68.261 27.665 67.643 27.505 67.163 27.185C66.6923 26.8547 66.3267 26.3957 66.11 25.863C65.881 25.315 65.767 24.677 65.767 23.969C65.767 23.171 65.904 22.464 66.202 21.893C66.4607 21.344 66.8844 20.8895 67.414 20.593C67.9745 20.2849 68.6055 20.1278 69.245 20.137C70.069 20.137 70.939 20.342 71.854 20.776L72.289 19.452C71.8204 19.2264 71.3294 19.0508 70.824 18.928C70.2831 18.8084 69.731 18.747 69.177 18.745C68.192 18.745 67.3 18.95 66.522 19.338C65.721 19.726 65.103 20.319 64.646 21.095C64.188 21.871 63.959 22.829 63.959 23.947C63.959 24.973 64.165 25.886 64.554 26.638Z" fill="#404040"/>
<path fill-rule="evenodd" clip-rule="evenodd" d="M40.94 26.2081H44.967L45.974 28.8771H47.827L43.8 18.8621H42.13L38.193 28.8771H39.955L40.939 26.2071L40.94 26.2081ZM44.44 24.8391H41.443L42.518 21.9421L42.93 20.6421C43.068 21.1211 43.228 21.5771 43.365 21.9651L44.441 24.8391H44.44ZM48.495 21.5561C48.516 22.1641 48.536 22.7311 48.536 23.2401H48.513V31.9771L50.229 31.8401V28.7151C50.733 28.8751 51.236 28.9651 51.739 28.9651C52.449 28.9651 53.067 28.8061 53.593 28.4871C54.143 28.1901 54.554 27.7111 54.852 27.0951C55.149 26.4791 55.31 25.7261 55.31 24.8591C55.31 24.0391 55.172 23.3541 54.92 22.8061C54.669 22.2591 54.325 21.8711 53.89 21.6201C53.4664 21.375 52.9844 21.2489 52.495 21.2551C51.625 21.2551 50.87 21.6201 50.207 22.3501C50.1913 22.036 50.1529 21.7235 50.092 21.4151H48.49L48.495 21.5561ZM53.57 24.9961C53.57 25.9091 53.387 26.5931 53.044 27.0491C52.678 27.5291 52.174 27.7571 51.534 27.7571C51.328 27.7571 51.099 27.7341 50.87 27.6881C50.6622 27.6512 50.4614 27.582 50.275 27.4831V23.4901C50.527 23.2161 50.801 23.0101 51.076 22.8501C51.3547 22.6926 51.671 22.6141 51.991 22.6231C52.472 22.6231 52.838 22.8281 53.136 23.1931C53.433 23.5581 53.57 24.1521 53.57 24.9961ZM56.339 23.2401C56.339 22.7311 56.319 22.1641 56.298 21.5561L56.293 21.4151H57.895C57.963 21.7341 57.986 22.0311 58.009 22.3501C58.673 21.6201 59.429 21.2551 60.298 21.2551C60.801 21.2551 61.258 21.3691 61.693 21.6201C62.128 21.8701 62.472 22.2591 62.723 22.8061C62.975 23.3541 63.113 24.0381 63.113 24.8591C63.113 25.7261 62.953 26.4791 62.655 27.0951C62.357 27.7111 61.945 28.1901 61.396 28.4871C60.87 28.8061 60.252 28.9661 59.542 28.9661C59.0288 28.9606 58.5194 28.8759 58.032 28.7151V31.8401L56.316 31.9771V23.2401H56.339ZM60.847 27.0501C61.19 26.5931 61.373 25.9091 61.373 24.9961C61.373 24.1521 61.236 23.5591 60.938 23.1941C60.641 22.8291 60.275 22.6241 59.794 22.6241C59.451 22.6241 59.154 22.6921 58.879 22.8521C58.604 23.0121 58.329 23.2171 58.078 23.4911V27.4831C58.238 27.5741 58.444 27.6431 58.673 27.6881C58.902 27.7341 59.131 27.7571 59.336 27.7571C59.977 27.7571 60.504 27.5281 60.846 27.0491L60.847 27.0501ZM78.627 28.8751C78.558 28.5791 78.536 28.2591 78.513 27.8951C78.238 28.2141 77.918 28.4651 77.483 28.6931C77.071 28.9211 76.59 29.0131 76.041 29.0131C75.606 29.0131 75.217 28.9211 74.874 28.7611C74.531 28.6011 74.234 28.3511 74.027 28.0081C73.809 27.6347 73.6983 27.2083 73.707 26.7761C73.707 26.0461 73.959 25.4761 74.485 25.0431C75.011 24.6091 75.881 24.4031 77.094 24.4031C77.552 24.4031 78.009 24.4271 78.444 24.4951V24.3581C78.444 23.6971 78.307 23.2401 78.032 22.9671C77.757 22.6931 77.346 22.5561 76.819 22.5561C76.453 22.5561 76.064 22.6021 75.652 22.7161C75.24 22.8301 74.874 22.9441 74.554 23.1031L74.279 21.8721C74.577 21.7351 74.989 21.5981 75.492 21.4841C76.0099 21.3644 76.5395 21.303 77.071 21.3011C77.711 21.3011 78.261 21.3931 78.719 21.5981C79.176 21.8031 79.519 22.1231 79.771 22.6021C80.023 23.0811 80.161 23.7191 80.161 24.5181V27.4841C80.161 27.7171 80.172 28.0241 80.188 28.4141L80.206 28.8751H78.627ZM77.62 27.4841C77.986 27.3241 78.26 27.0961 78.49 26.8441V25.4541C78.11 25.4126 77.7282 25.3892 77.346 25.3841C76.636 25.3841 76.156 25.4991 75.881 25.7271C75.606 25.9551 75.469 26.2521 75.469 26.6401C75.469 27.0051 75.561 27.2781 75.767 27.4601C75.973 27.6431 76.224 27.7351 76.567 27.7351C76.911 27.7571 77.254 27.6661 77.62 27.4841Z" fill="#404040"/>
<path d="M85.768 27.094V18.288L87.461 18.151V26.797C87.461 27.117 87.507 27.345 87.621 27.482C87.736 27.619 87.896 27.687 88.147 27.687C88.262 27.687 88.399 27.664 88.605 27.619L88.811 28.851C88.651 28.919 88.445 28.965 88.216 29.011C87.9977 29.055 87.7757 29.0778 87.553 29.079C86.363 29.01 85.768 28.372 85.768 27.094Z" fill="#404040"/>
<path fill-rule="evenodd" clip-rule="evenodd" d="M90.92 25.361H95.795V24.905C95.795 24.243 95.681 23.628 95.452 23.08C95.222 22.533 94.88 22.076 94.399 21.757C93.942 21.415 93.347 21.255 92.637 21.255C91.951 21.255 91.356 21.415 90.829 21.734C90.303 22.054 89.914 22.51 89.617 23.103C89.319 23.696 89.182 24.403 89.182 25.224C89.182 26.023 89.319 26.684 89.594 27.254C89.8543 27.8097 90.2876 28.2662 90.829 28.555C91.379 28.852 92.042 29.011 92.843 29.011C93.873 29.011 94.811 28.806 95.658 28.395L95.292 27.232C94.948 27.369 94.605 27.482 94.239 27.574C93.8872 27.663 93.5259 27.709 93.163 27.711C91.745 27.711 90.989 26.913 90.92 25.361ZM94.147 24.266C94.12 23.684 93.961 23.236 93.69 22.943C93.415 22.646 93.072 22.487 92.614 22.487C92.179 22.487 91.814 22.647 91.539 22.943C91.241 23.24 91.059 23.696 90.966 24.266H94.147Z" fill="#404040"/>
<path d="M97.093 23.286C97.093 22.992 97.081 22.594 97.066 22.082L97.046 21.415H98.649C98.672 21.621 98.695 21.872 98.717 22.168L98.733 22.358C98.749 22.565 98.763 22.734 98.763 22.875C98.969 22.556 99.153 22.282 99.358 22.055C99.541 21.826 99.77 21.643 100.022 21.507C100.29 21.3668 100.589 21.296 100.891 21.301C101.166 21.301 101.372 21.324 101.578 21.393L101.372 22.875C101.193 22.8271 101.008 22.8042 100.823 22.807C100.411 22.807 100.068 22.898 99.77 23.104C99.473 23.309 99.152 23.651 98.809 24.107V28.898H97.116V23.286H97.093ZM101.924 31.771C102.084 31.84 102.29 31.885 102.542 31.931C102.793 31.977 103.068 32 103.343 32C103.937 32 104.418 31.886 104.83 31.68C105.249 31.4354 105.609 31.1006 105.883 30.7C106.18 30.266 106.477 29.673 106.729 28.965L109.475 21.415H107.759L106.363 25.658C106.189 26.1918 106.037 26.7322 105.906 27.278C105.794 26.7221 105.649 26.1735 105.471 25.635L104.074 21.437H102.244L104.99 28.943L104.875 29.216C104.51 30.197 103.937 30.676 103.183 30.676C103.04 30.676 102.899 30.659 102.74 30.638C102.614 30.6241 102.489 30.6007 102.367 30.568C102.326 30.5577 102.285 30.5483 102.244 30.54L101.924 31.771ZM66.524 14.501V11.672C66.524 11.344 66.542 10.979 66.562 10.577L66.569 10.44L63.961 14.501H62.977V9.345H63.8V12.288C63.8 12.608 63.8 12.95 63.778 13.338L66.341 9.345H67.371V14.501H66.524ZM64.51 8.89C64.331 8.80509 64.1803 8.67038 64.076 8.502C63.9817 8.34877 63.9194 8.17799 63.893 8H64.533C64.603 8.388 64.831 8.57 65.197 8.57C65.563 8.57 65.792 8.388 65.884 8H66.524C66.4976 8.17799 66.4353 8.34877 66.341 8.502C66.25 8.662 66.09 8.776 65.907 8.89C65.724 9.004 65.472 9.05 65.197 9.05C64.945 9.05 64.693 8.981 64.51 8.89Z" fill="#404040"/>
<path fill-rule="evenodd" clip-rule="evenodd" d="M39.015 14.251C38.625 14.046 38.351 13.727 38.145 13.339C37.939 12.951 37.848 12.495 37.848 11.97C37.848 11.423 37.962 10.943 38.168 10.533C38.374 10.123 38.694 9.803 39.083 9.598C39.495 9.369 39.953 9.255 40.503 9.255C41.029 9.255 41.463 9.369 41.853 9.575C42.218 9.78 42.516 10.1 42.722 10.487C42.928 10.875 43.019 11.331 43.019 11.833C43.019 12.381 42.905 12.86 42.699 13.271C42.493 13.681 42.173 14.001 41.784 14.206C41.394 14.434 40.914 14.548 40.388 14.548C39.912 14.5742 39.4377 14.4716 39.015 14.251ZM41.349 13.613C41.601 13.453 41.784 13.225 41.921 12.928C42.035 12.632 42.104 12.289 42.104 11.924C42.104 11.56 42.058 11.217 41.944 10.944C41.829 10.647 41.669 10.419 41.417 10.259C41.166 10.077 40.868 10.009 40.479 10.009C40.1562 10.0016 39.8382 10.0885 39.564 10.259C39.312 10.442 39.129 10.669 38.992 10.966C38.855 11.263 38.809 11.582 38.809 11.947C38.809 12.312 38.878 12.655 38.992 12.951C39.106 13.248 39.289 13.476 39.542 13.658C39.792 13.841 40.09 13.909 40.456 13.909C40.776 13.864 41.097 13.795 41.349 13.613Z" fill="#404040"/>
<path d="M44.83 10.076H43.228L43.298 9.323H47.348L47.256 10.076H45.723V14.502H44.83V10.076ZM51.143 14.502H52.15L50.228 11.628L51.166 10.282C51.2243 10.1835 51.3022 10.098 51.395 10.031C51.4777 9.98195 51.573 9.9583 51.669 9.96301C51.761 9.96301 51.853 9.985 51.944 10.031L52.127 9.347C51.99 9.278 51.807 9.255 51.601 9.255C51.372 9.255 51.166 9.301 51.006 9.415C50.846 9.529 50.686 9.689 50.526 9.917L49.45 11.468H48.992V9.347H48.1V14.502H48.992V12.222H49.61L51.143 14.502Z" fill="#404040"/>
<path fill-rule="evenodd" clip-rule="evenodd" d="M52.838 9.34503H54.234C54.897 9.34503 55.401 9.48203 55.744 9.75503C56.087 10.03 56.27 10.417 56.27 10.919C56.27 11.261 56.202 11.559 56.042 11.809C55.882 12.06 55.675 12.265 55.378 12.402C55.0781 12.5447 54.749 12.6152 54.417 12.608C54.211 12.608 53.982 12.585 53.73 12.539V14.501H52.838V9.34503ZM55.08 11.649C55.264 11.467 55.355 11.239 55.355 10.919C55.355 10.599 55.264 10.372 55.058 10.235C54.875 10.098 54.578 10.03 54.211 10.03H53.731V11.855C53.959 11.9 54.119 11.9 54.234 11.9C54.6 11.9 54.897 11.808 55.08 11.649ZM57.118 13.339C57.324 13.727 57.598 14.046 57.988 14.251C58.354 14.457 58.811 14.571 59.36 14.548C59.887 14.548 60.367 14.434 60.756 14.206C61.146 14.001 61.466 13.681 61.672 13.271C61.878 12.86 61.992 12.381 61.992 11.833C61.992 11.331 61.901 10.875 61.695 10.487C61.4985 10.1058 61.1965 9.78923 60.825 9.57503C60.4088 9.3572 59.9447 9.24718 59.475 9.25503C58.925 9.25503 58.468 9.36903 58.056 9.59803C57.667 9.80303 57.346 10.122 57.141 10.533C56.935 10.943 56.821 11.423 56.821 11.97C56.821 12.495 56.911 12.951 57.118 13.339ZM60.871 12.929C60.733 13.225 60.551 13.453 60.299 13.613C60.047 13.795 59.749 13.863 59.406 13.909C59.04 13.909 58.743 13.841 58.491 13.659C58.2412 13.4832 58.0496 13.2366 57.941 12.951C57.8193 12.6303 57.7577 12.29 57.759 11.947C57.759 11.582 57.804 11.263 57.942 10.967C58.079 10.67 58.262 10.442 58.514 10.259C58.765 10.099 59.063 10.009 59.429 10.009C59.819 10.009 60.116 10.077 60.367 10.259C60.619 10.419 60.779 10.647 60.894 10.943C61.008 11.217 61.054 11.56 61.054 11.925C61.0549 12.2677 60.9929 12.6087 60.871 12.929Z" fill="#404040"/>
<path d="M68.123 10.076H69.702V14.502H70.594V10.076H72.128L72.219 9.323H68.192L68.123 10.076ZM72.973 9.345H76.016L75.925 10.075H73.865V11.49H75.81V12.174H73.865V13.748H76.039L75.97 14.478H72.973V9.345Z" fill="#404040"/>
<path fill-rule="evenodd" clip-rule="evenodd" d="M82.723 12.402C82.6214 12.2138 82.4712 12.0563 82.288 11.946C82.1007 11.8306 81.8891 11.7604 81.67 11.741C81.9337 11.6604 82.171 11.5105 82.357 11.307C82.5244 11.0833 82.6127 10.8103 82.608 10.531C82.608 10.166 82.471 9.86997 82.196 9.66497C81.922 9.45897 81.51 9.34497 80.961 9.34497H79.336V14.478H81.029C81.419 14.478 81.762 14.41 82.036 14.296C82.311 14.182 82.54 14.022 82.677 13.794C82.814 13.588 82.883 13.337 82.883 13.041C82.883 12.813 82.837 12.585 82.723 12.402ZM80.778 11.444H80.206V9.98397H80.8C81.098 9.98397 81.304 10.03 81.464 10.144C81.624 10.258 81.693 10.417 81.693 10.623C81.6937 10.7697 81.6533 10.9136 81.5764 11.0386C81.4996 11.1635 81.3893 11.2645 81.258 11.33C81.1091 11.4049 80.9447 11.444 80.778 11.444ZM81.99 12.972C81.99 13.246 81.899 13.452 81.716 13.612C81.533 13.771 81.258 13.839 80.892 13.817H80.228V12.083H80.823C81.213 12.083 81.487 12.151 81.693 12.311C81.899 12.471 81.99 12.675 81.99 12.972Z" fill="#404040"/>
<path fill-rule="evenodd" clip-rule="evenodd" d="M25.607 9.37H16.11C11.625 9.37 10 11.013 10 15.461V24.929C10 29.4 11.648 31.019 16.11 31.019H25.607C30.092 31.019 31.717 29.377 31.717 24.929V15.46C31.739 11.012 30.092 9.37 25.607 9.37Z" fill="#595959"/>
<path d="M14.302 20.206H14.874V23.036H14.302V21.894H12.998V23.035H12.426V20.206H12.998V21.347H14.302V20.207V20.206ZM17.552 21.826C17.552 22.282 17.322 22.533 16.911 22.533C16.499 22.533 16.271 22.283 16.271 21.803V20.206H15.698V21.826C15.698 22.625 16.133 23.081 16.911 23.081C17.689 23.081 18.147 22.625 18.147 21.803V20.206H17.575V21.826H17.552ZM24.211 22.146L23.57 20.206H23.09L22.449 22.146L21.831 20.206H21.213L22.197 23.036H22.677L23.318 21.164L23.959 23.035H24.439L25.424 20.206H24.829L24.211 22.146ZM26.476 21.826H27.529V21.301H26.476V20.731H28.01V20.206H25.927V23.036H28.078V22.51H26.5V21.826H26.476ZM28.742 23.036H29.314V20.206H28.742V23.036ZM19.268 22.442L19.016 23.035H18.421L19.657 20.206H20.16L21.396 23.036H20.801L20.549 22.442H19.268ZM19.474 21.94H20.344L19.909 20.936L19.474 21.94ZM20.872 16.603C19.915 16.6025 18.9973 16.2229 18.3196 15.5473C17.6419 14.8716 17.2594 13.955 17.256 12.998H17.759C17.7609 13.8222 18.0897 14.6119 18.6734 15.1937C19.2571 15.7755 20.0479 16.1018 20.872 16.101C21.696 16.1016 22.4864 15.7751 23.0699 15.1933C23.6534 14.6115 23.9821 13.822 23.984 12.998H24.487C24.4836 13.9548 24.1013 14.8713 23.4238 15.5469C22.7463 16.2225 21.8288 16.6023 20.872 16.603Z" fill="white"/>
</g>
<defs>
<clipPath id="clip0_4_59">
<rect width="120" height="40" fill="white"/>
</clipPath>
</defs>
</svg>
