<svg width="151" height="40" viewBox="0 0 151 40" fill="none" xmlns="http://www.w3.org/2000/svg">
<rect width="40" height="40" rx="20" fill="#00D0FF"/>
<path d="M12.3182 32V8.72727H20.4545C22.0758 8.72727 23.4129 9.00758 24.4659 9.56818C25.5189 10.1212 26.303 10.8674 26.8182 11.8068C27.3333 12.7386 27.5909 13.7727 27.5909 14.9091C27.5909 15.9091 27.4129 16.7348 27.0568 17.3864C26.7083 18.0379 26.2462 18.553 25.6704 18.9318C25.1023 19.3106 24.4848 19.5909 23.8182 19.7727V20C24.5303 20.0455 25.2462 20.2955 25.9659 20.75C26.6856 21.2045 27.2879 21.8561 27.7727 22.7045C28.2576 23.553 28.5 24.5909 28.5 25.8182C28.5 26.9848 28.2348 28.0341 27.7045 28.9659C27.1742 29.8977 26.3371 30.6364 25.1932 31.1818C24.0492 31.7273 22.5606 32 20.7273 32H12.3182ZM15.1364 29.5H20.7273C22.5682 29.5 23.875 29.1439 24.6477 28.4318C25.428 27.7121 25.8182 26.8409 25.8182 25.8182C25.8182 25.0303 25.6174 24.303 25.2159 23.6364C24.8144 22.9621 24.2424 22.4242 23.5 22.0227C22.7576 21.6136 21.8788 21.4091 20.8636 21.4091H15.1364V29.5ZM15.1364 18.9545H20.3636C21.2121 18.9545 21.9773 18.7879 22.6591 18.4545C23.3485 18.1212 23.8939 17.6515 24.2954 17.0455C24.7045 16.4394 24.9091 15.7273 24.9091 14.9091C24.9091 13.8864 24.553 13.0189 23.8409 12.3068C23.1288 11.5871 22 11.2273 20.4545 11.2273H15.1364V18.9545Z" fill="white"/>
<path d="M50 31.8V10.8545H58.5636C60.8182 10.8545 62.6091 11.3636 63.9364 12.3818C65.2636 13.4 65.9273 14.7455 65.9273 16.4182C65.9273 17.6909 65.55 18.6773 64.7955 19.3773C64.0409 20.0682 63.0727 20.5364 61.8909 20.7818C62.6636 20.8909 63.4136 21.1636 64.1409 21.6C64.8773 22.0364 65.4864 22.6364 65.9682 23.4C66.45 24.1545 66.6909 25.0818 66.6909 26.1818C66.6909 27.2545 66.4182 28.2136 65.8727 29.0591C65.3273 29.9045 64.5455 30.5727 63.5273 31.0636C62.5091 31.5545 61.2909 31.8 59.8727 31.8H50ZM53.0545 28.8545H59.8727C60.9818 28.8545 61.85 28.5909 62.4773 28.0636C63.1045 27.5364 63.4182 26.8182 63.4182 25.9091C63.4182 24.8273 63.1045 23.9773 62.4773 23.3591C61.85 22.7318 60.9818 22.4182 59.8727 22.4182H53.0545V28.8545ZM53.0545 19.6364H58.5636C59.4273 19.6364 60.1682 19.5182 60.7864 19.2818C61.4045 19.0364 61.8773 18.6909 62.2045 18.2455C62.5409 17.7909 62.7091 17.2545 62.7091 16.6364C62.7091 15.7545 62.3409 15.0636 61.6045 14.5636C60.8682 14.0545 59.8545 13.8 58.5636 13.8H53.0545V19.6364Z" fill="#00D0FF"/>
<path d="M80.3443 32.2364C78.3261 32.2364 76.5852 31.7909 75.1216 30.9C73.667 30 72.5443 28.7455 71.7534 27.1364C70.9716 25.5182 70.5807 23.6364 70.5807 21.4909C70.5807 19.3455 70.9716 17.4545 71.7534 15.8182C72.5443 14.1727 73.6443 12.8909 75.0534 11.9727C76.4716 11.0455 78.1261 10.5818 80.017 10.5818C81.108 10.5818 82.1852 10.7636 83.2489 11.1273C84.3125 11.4909 85.2807 12.0818 86.1534 12.9C87.0261 13.7091 87.7216 14.7818 88.2398 16.1182C88.758 17.4545 89.017 19.1 89.017 21.0545V22.4182H72.8716V19.6364H85.7443C85.7443 18.4545 85.508 17.4 85.0352 16.4727C84.5716 15.5455 83.908 14.8136 83.0443 14.2773C82.1898 13.7409 81.1807 13.4727 80.017 13.4727C78.7352 13.4727 77.6261 13.7909 76.6898 14.4273C75.7625 15.0545 75.0489 15.8727 74.5489 16.8818C74.0489 17.8909 73.7989 18.9727 73.7989 20.1273V21.9818C73.7989 23.5636 74.0716 24.9045 74.617 26.0045C75.1716 27.0955 75.9398 27.9273 76.9216 28.5C77.9034 29.0636 79.0443 29.3455 80.3443 29.3455C81.1898 29.3455 81.9534 29.2273 82.6352 28.9909C83.3261 28.7455 83.9216 28.3818 84.4216 27.9C84.9216 27.4091 85.308 26.8 85.5807 26.0727L88.6898 26.9455C88.3625 28 87.8125 28.9273 87.0398 29.7273C86.267 30.5182 85.3125 31.1364 84.1761 31.5818C83.0398 32.0182 81.7625 32.2364 80.3443 32.2364Z" fill="#00D0FF"/>
<path d="M92.6034 26.4545H96.0398C96.1125 27.4 96.5398 28.1182 97.3216 28.6091C98.1125 29.1 99.1398 29.3455 100.403 29.3455C101.694 29.3455 102.799 29.0818 103.717 28.5545C104.635 28.0182 105.094 27.1545 105.094 25.9636C105.094 25.2636 104.922 24.6545 104.576 24.1364C104.231 23.6091 103.744 23.2 103.117 22.9091C102.49 22.6182 101.749 22.4727 100.894 22.4727H97.2943V19.5818H100.894C102.176 19.5818 103.122 19.2909 103.731 18.7091C104.349 18.1273 104.658 17.4 104.658 16.5273C104.658 15.5909 104.326 14.8409 103.662 14.2773C102.999 13.7045 102.058 13.4182 100.84 13.4182C99.6125 13.4182 98.5898 13.6955 97.7716 14.25C96.9534 14.7955 96.5216 15.5 96.4761 16.3636H93.0943C93.1307 15.2364 93.4761 14.2409 94.1307 13.3773C94.7852 12.5045 95.6761 11.8227 96.8034 11.3318C97.9307 10.8318 99.2216 10.5818 100.676 10.5818C102.149 10.5818 103.426 10.8409 104.508 11.3591C105.599 11.8682 106.44 12.5636 107.031 13.4455C107.631 14.3182 107.931 15.3091 107.931 16.4182C107.931 17.6 107.599 18.5545 106.935 19.2818C106.272 20.0091 105.44 20.5273 104.44 20.8364V21.0545C105.231 21.1091 105.917 21.3636 106.499 21.8182C107.09 22.2636 107.549 22.85 107.876 23.5773C108.203 24.2955 108.367 25.0909 108.367 25.9636C108.367 27.2364 108.026 28.3455 107.344 29.2909C106.662 30.2273 105.726 30.9545 104.535 31.4727C103.344 31.9818 101.985 32.2364 100.458 32.2364C98.9761 32.2364 97.6489 31.9955 96.4761 31.5136C95.3034 31.0227 94.3716 30.3455 93.6807 29.4818C92.9989 28.6091 92.6398 27.6 92.6034 26.4545Z" fill="#00D0FF"/>
<path d="M121.669 32.2364C119.651 32.2364 117.91 31.7909 116.447 30.9C114.992 30 113.869 28.7455 113.078 27.1364C112.297 25.5182 111.906 23.6364 111.906 21.4909C111.906 19.3455 112.297 17.4545 113.078 15.8182C113.869 14.1727 114.969 12.8909 116.378 11.9727C117.797 11.0455 119.451 10.5818 121.342 10.5818C122.433 10.5818 123.51 10.7636 124.574 11.1273C125.637 11.4909 126.606 12.0818 127.478 12.9C128.351 13.7091 129.047 14.7818 129.565 16.1182C130.083 17.4545 130.342 19.1 130.342 21.0545V22.4182H114.197V19.6364H127.069C127.069 18.4545 126.833 17.4 126.36 16.4727C125.897 15.5455 125.233 14.8136 124.369 14.2773C123.515 13.7409 122.506 13.4727 121.342 13.4727C120.06 13.4727 118.951 13.7909 118.015 14.4273C117.087 15.0545 116.374 15.8727 115.874 16.8818C115.374 17.8909 115.124 18.9727 115.124 20.1273V21.9818C115.124 23.5636 115.397 24.9045 115.942 26.0045C116.497 27.0955 117.265 27.9273 118.247 28.5C119.228 29.0636 120.369 29.3455 121.669 29.3455C122.515 29.3455 123.278 29.2273 123.96 28.9909C124.651 28.7455 125.247 28.3818 125.747 27.9C126.247 27.4091 126.633 26.8 126.906 26.0727L130.015 26.9455C129.688 28 129.137 28.9273 128.365 29.7273C127.592 30.5182 126.637 31.1364 125.501 31.5818C124.365 32.0182 123.087 32.2364 121.669 32.2364ZM117.251 7.36364C116.678 7.36364 116.169 7.14545 115.724 6.70909C115.287 6.26364 115.069 5.75454 115.069 5.18182C115.069 4.55454 115.287 4.03636 115.724 3.62727C116.169 3.20909 116.678 3 117.251 3C117.878 3 118.397 3.20909 118.806 3.62727C119.224 4.03636 119.433 4.55454 119.433 5.18182C119.433 5.75454 119.224 6.26364 118.806 6.70909C118.397 7.14545 117.878 7.36364 117.251 7.36364ZM125.106 7.36364C124.533 7.36364 124.024 7.14545 123.578 6.70909C123.142 6.26364 122.924 5.75454 122.924 5.18182C122.924 4.55454 123.142 4.03636 123.578 3.62727C124.024 3.20909 124.533 3 125.106 3C125.733 3 126.251 3.20909 126.66 3.62727C127.078 4.03636 127.287 4.55454 127.287 5.18182C127.287 5.75454 127.078 6.26364 126.66 6.70909C126.251 7.14545 125.733 7.36364 125.106 7.36364Z" fill="#00D0FF"/>
<path d="M133.287 13.8545V10.8545H150.306V13.8545H143.433V31.8H140.215V13.8545H133.287Z" fill="#00D0FF"/>
</svg>
