<svg width="311" height="105" viewBox="0 0 311 105" fill="none" xmlns="http://www.w3.org/2000/svg">
<g filter="url(#filter0_d_58_19)">
<path d="M283 8C294.046 8 303 16.9543 303 28V68C303 79.0457 294.046 88 283 88H159.449L150.5 97L141.551 88H28C16.9543 88 8 79.0457 8 68V28C8 16.9543 16.9543 8 28 8H283Z" fill="white"/>
</g>
<g clip-path="url(#clip0_58_19)">
<path d="M55.0115 30H36.9885C32.0243 30 28 34.0243 28 38.9885V57.0115C28 61.9757 32.0243 66 36.9885 66H55.0115C59.9757 66 64 61.9757 64 57.0115V38.9885C64 34.0243 59.9757 30 55.0115 30Z" fill="url(#paint0_linear_58_19)"/>
<path d="M55.0115 30H36.9885C32.0243 30 28 34.0243 28 38.9885V57.0115C28 61.9757 32.0243 66 36.9885 66H55.0115C59.9757 66 64 61.9757 64 57.0115V38.9885C64 34.0243 59.9757 30 55.0115 30Z" fill="url(#paint1_radial_58_19)"/>
<path fill-rule="evenodd" clip-rule="evenodd" d="M46.2955 61.6198C43.5953 61.6198 42.3404 61.2256 40.1592 59.6488C38.7795 61.4227 34.4105 62.809 34.22 60.4372C34.22 58.6568 33.8258 57.1523 33.379 55.5098C32.8469 53.4862 32.2424 51.2327 32.2424 47.9675C32.2424 40.169 38.6416 34.302 46.2233 34.302C53.8115 34.302 59.7574 40.458 59.7574 48.0397C59.7828 55.5042 53.76 61.58 46.2955 61.6198ZM46.4072 41.0428C42.7149 40.8522 39.8373 43.408 39.2 47.4156C38.6744 50.7334 39.6073 54.7739 40.4023 54.9842C40.7834 55.0762 41.7426 54.3009 42.3404 53.7031C43.329 54.386 44.4803 54.7962 45.678 54.8922C49.5038 55.0762 52.7729 52.1636 53.0297 48.342C53.1793 44.5123 50.2336 41.2685 46.4072 41.0493V41.0428Z" fill="white"/>
</g>
<path d="M80.0043 45V34.8182H81.8487V39.1286H86.5668V34.8182H88.4162V45H86.5668V40.6747H81.8487V45H80.0043ZM93.7234 45.1491C92.9577 45.1491 92.2965 44.9901 91.7397 44.6719C91.1862 44.3504 90.7603 43.8963 90.462 43.3097C90.1637 42.7197 90.0146 42.0253 90.0146 41.2266C90.0146 40.4411 90.1637 39.7517 90.462 39.1584C90.7636 38.5618 91.1845 38.0978 91.7248 37.7663C92.265 37.4316 92.8997 37.2642 93.6289 37.2642C94.0996 37.2642 94.5437 37.3404 94.9613 37.4929C95.3822 37.642 95.7534 37.8741 96.0749 38.1889C96.3997 38.5038 96.6549 38.9048 96.8406 39.392C97.0262 39.8759 97.119 40.4527 97.119 41.1222V41.674H90.8597V40.4609H95.3938C95.3905 40.1162 95.3159 39.8097 95.1701 39.5412C95.0243 39.2694 94.8204 39.0556 94.5586 38.8999C94.3001 38.7441 93.9985 38.6662 93.6538 38.6662C93.2859 38.6662 92.9627 38.7557 92.6843 38.9347C92.4059 39.1103 92.1888 39.3423 92.033 39.6307C91.8806 39.9157 91.8027 40.2289 91.7994 40.5703V41.6293C91.7994 42.0734 91.8806 42.4545 92.043 42.7727C92.2054 43.0876 92.4324 43.3295 92.7241 43.4986C93.0157 43.6643 93.3571 43.7472 93.7482 43.7472C94.0101 43.7472 94.247 43.7107 94.4592 43.6378C94.6713 43.5616 94.8552 43.4505 95.011 43.3047C95.1668 43.1589 95.2844 42.9782 95.364 42.7628L97.0444 42.9517C96.9383 43.3958 96.7362 43.7836 96.4379 44.1151C96.1429 44.4432 95.765 44.6984 95.3043 44.8807C94.8436 45.0597 94.3166 45.1491 93.7234 45.1491ZM98.0051 38.8402V37.3636H104.687V38.8402H102.216V45H100.476V38.8402H98.0051ZM114.838 40.4361V41.9126H110.771V40.4361H114.838ZM111.328 37.3636V45H109.593V37.3636H111.328ZM116.016 37.3636V45H114.286V37.3636H116.016ZM118.682 47.8636C118.437 47.8636 118.21 47.8438 118.001 47.804C117.795 47.7675 117.631 47.7244 117.509 47.6747L117.926 46.2727C118.188 46.349 118.422 46.3854 118.627 46.3821C118.833 46.3788 119.013 46.3142 119.169 46.1882C119.328 46.0656 119.463 45.8601 119.572 45.5717L119.726 45.1591L116.957 37.3636H118.866L120.626 43.1307H120.705L122.47 37.3636H124.384L121.327 45.9247C121.184 46.3291 120.995 46.6754 120.76 46.9638C120.525 47.2554 120.236 47.4775 119.895 47.63C119.557 47.7857 119.153 47.8636 118.682 47.8636ZM125.133 45L127.952 41.0575L125.157 37.3636H127.236L129.408 40.4411H129.836V37.3636H131.635V40.4411H132.053L134.226 37.3636H136.304L133.525 41.0575L136.329 45H134.206L132.033 41.9176H131.635V45H129.836V41.9176H129.438L127.256 45H125.133ZM136.999 47.2173V43.5185H137.605C137.768 43.3925 137.903 43.2218 138.013 43.0064C138.122 42.7876 138.212 42.5308 138.281 42.2358C138.354 41.9375 138.414 41.6044 138.46 41.2365C138.507 40.8653 138.548 40.4659 138.585 40.0384L138.803 37.3636H144.322V43.5185H145.505V47.2173H143.765V45H138.768V47.2173H136.999ZM139.455 43.5185H142.602V38.8153H140.364L140.245 40.0384C140.179 40.8471 140.091 41.5398 139.982 42.1165C139.872 42.6932 139.696 43.1605 139.455 43.5185ZM148.067 39.8494H150.319C151.293 39.8494 152.047 40.0864 152.581 40.5604C153.114 41.0343 153.383 41.6558 153.386 42.4247C153.383 42.9252 153.26 43.3693 153.018 43.7571C152.78 44.1449 152.432 44.4498 151.974 44.6719C151.52 44.8906 150.968 45 150.319 45H146.849V37.3636H148.584V43.5234H150.319C150.71 43.5234 151.031 43.424 151.283 43.2251C151.535 43.023 151.661 42.7644 151.661 42.4496C151.661 42.1181 151.535 41.848 151.283 41.6392C151.031 41.4304 150.71 41.326 150.319 41.326H148.067V39.8494ZM154.336 45V37.3636H156.135V45H154.336ZM161.464 45V37.3636H167.912V45H166.177V38.8402H163.184V45H161.464ZM169.763 47.8636V37.3636H171.532V38.6264H171.637C171.73 38.4408 171.861 38.2436 172.03 38.0348C172.199 37.8227 172.427 37.642 172.716 37.4929C173.004 37.3404 173.372 37.2642 173.819 37.2642C174.409 37.2642 174.941 37.415 175.415 37.7166C175.893 38.0149 176.27 38.4574 176.549 39.044C176.831 39.6274 176.971 40.3433 176.971 41.1918C176.971 42.0303 176.834 42.7429 176.559 43.3295C176.284 43.9162 175.909 44.3636 175.435 44.6719C174.961 44.9801 174.424 45.1342 173.824 45.1342C173.387 45.1342 173.024 45.0613 172.736 44.9155C172.447 44.7696 172.215 44.594 172.04 44.3885C171.867 44.1797 171.733 43.9825 171.637 43.7969H171.562V47.8636H169.763ZM171.528 41.1818C171.528 41.6757 171.597 42.1082 171.736 42.4794C171.879 42.8506 172.083 43.1406 172.348 43.3494C172.616 43.5549 172.941 43.6577 173.322 43.6577C173.72 43.6577 174.053 43.5516 174.322 43.3395C174.59 43.1241 174.792 42.8307 174.928 42.4595C175.067 42.085 175.137 41.6591 175.137 41.1818C175.137 40.7079 175.069 40.2869 174.933 39.919C174.797 39.5511 174.595 39.2628 174.327 39.054C174.058 38.8452 173.723 38.7408 173.322 38.7408C172.938 38.7408 172.611 38.8419 172.343 39.044C172.074 39.2462 171.871 39.5296 171.731 39.8942C171.595 40.2588 171.528 40.688 171.528 41.1818ZM181.893 45.1491C181.128 45.1491 180.466 44.9901 179.91 44.6719C179.356 44.3504 178.93 43.8963 178.632 43.3097C178.334 42.7197 178.184 42.0253 178.184 41.2266C178.184 40.4411 178.334 39.7517 178.632 39.1584C178.934 38.5618 179.354 38.0978 179.895 37.7663C180.435 37.4316 181.07 37.2642 181.799 37.2642C182.269 37.2642 182.714 37.3404 183.131 37.4929C183.552 37.642 183.923 37.8741 184.245 38.1889C184.57 38.5038 184.825 38.9048 185.01 39.392C185.196 39.8759 185.289 40.4527 185.289 41.1222V41.674H179.03V40.4609H183.564C183.56 40.1162 183.486 39.8097 183.34 39.5412C183.194 39.2694 182.99 39.0556 182.729 38.8999C182.47 38.7441 182.168 38.6662 181.824 38.6662C181.456 38.6662 181.133 38.7557 180.854 38.9347C180.576 39.1103 180.359 39.3423 180.203 39.6307C180.05 39.9157 179.973 40.2289 179.969 40.5703V41.6293C179.969 42.0734 180.05 42.4545 180.213 42.7727C180.375 43.0876 180.602 43.3295 180.894 43.4986C181.186 43.6643 181.527 43.7472 181.918 43.7472C182.18 43.7472 182.417 43.7107 182.629 43.6378C182.841 43.5616 183.025 43.4505 183.181 43.3047C183.337 43.1589 183.454 42.9782 183.534 42.7628L185.214 42.9517C185.108 43.3958 184.906 43.7836 184.608 44.1151C184.313 44.4432 183.935 44.6984 183.474 44.8807C183.014 45.0597 182.487 45.1491 181.893 45.1491ZM186.135 47.2173V43.5185H186.742C186.904 43.3925 187.04 43.2218 187.15 43.0064C187.259 42.7876 187.348 42.5308 187.418 42.2358C187.491 41.9375 187.551 41.6044 187.597 41.2365C187.643 40.8653 187.685 40.4659 187.721 40.0384L187.94 37.3636H193.458V43.5185H194.642V47.2173H192.902V45H187.905V47.2173H186.135ZM188.591 43.5185H191.738V38.8153H189.501L189.382 40.0384C189.315 40.8471 189.228 41.5398 189.118 42.1165C189.009 42.6932 188.833 43.1605 188.591 43.5185ZM197.546 37.3636V38.8452H195.528V37.3636H197.546ZM198.769 39.8494H201.017C201.991 39.8494 202.745 40.0864 203.279 40.5604C203.816 41.0343 204.084 41.6558 204.084 42.4247C204.084 42.9252 203.963 43.3693 203.721 43.7571C203.482 44.1449 203.134 44.4498 202.677 44.6719C202.22 44.8906 201.666 45 201.017 45H197.546V37.3636H199.286V43.5234H201.017C201.408 43.5234 201.729 43.424 201.981 43.2251C202.233 43.023 202.36 42.7644 202.364 42.4496C202.36 42.1181 202.233 41.848 201.981 41.6392C201.729 41.4304 201.408 41.326 201.017 41.326H198.769V39.8494ZM210.138 45V38.8253H208.507C208.093 38.8253 207.775 38.9214 207.553 39.1136C207.331 39.3059 207.221 39.5445 207.225 39.8295C207.221 40.1146 207.326 40.3499 207.538 40.5355C207.75 40.7211 208.053 40.8139 208.448 40.8139H210.705V42.1264H208.448C207.838 42.1264 207.311 42.0303 206.867 41.8381C206.423 41.6458 206.081 41.3741 205.843 41.0227C205.604 40.6714 205.485 40.2604 205.485 39.7898C205.485 39.2992 205.606 38.8733 205.848 38.5121C206.093 38.1475 206.441 37.8658 206.892 37.6669C207.346 37.4647 207.884 37.3636 208.507 37.3636H211.824V45H210.138ZM205.206 45L207.339 41.0824H209.114L206.976 45H205.206ZM213.636 45V37.3636H216.842C217.747 37.3636 218.461 37.5443 218.985 37.9055C219.512 38.2668 219.776 38.7706 219.776 39.4169C219.776 39.8445 219.626 40.1941 219.328 40.4659C219.033 40.7344 218.63 40.915 218.12 41.0078C218.521 41.041 218.872 41.142 219.174 41.3111C219.479 41.4801 219.718 41.7022 219.89 41.9773C220.062 42.2524 220.148 42.5689 220.148 42.9268C220.148 43.3478 220.037 43.714 219.815 44.0256C219.597 44.3338 219.277 44.5741 218.856 44.7464C218.438 44.9155 217.931 45 217.335 45H213.636ZM215.321 43.5831H217.335C217.666 43.5831 217.926 43.5052 218.115 43.3494C218.304 43.1903 218.398 42.9749 218.398 42.7031C218.398 42.3883 218.304 42.1413 218.115 41.9624C217.926 41.7801 217.666 41.6889 217.335 41.6889H215.321V43.5831ZM215.321 40.5256H216.877C217.122 40.5256 217.333 40.4908 217.509 40.4212C217.684 40.3482 217.818 40.2472 217.911 40.1179C218.004 39.9853 218.05 39.8279 218.05 39.6456C218.05 39.3838 217.943 39.1783 217.727 39.0291C217.515 38.88 217.22 38.8054 216.842 38.8054H215.321V40.5256ZM221.107 45L221.097 43.5185H221.36C221.559 43.5185 221.727 43.4737 221.862 43.3842C221.998 43.2947 222.111 43.1456 222.2 42.9368C222.29 42.7247 222.36 42.4396 222.409 42.0817C222.459 41.7237 222.494 41.2779 222.514 40.7443L222.648 37.3636H228.216V45H226.476V38.8402H224.284L224.164 41.3011C224.134 41.9375 224.063 42.4893 223.95 42.9567C223.841 43.4207 223.685 43.8035 223.483 44.1051C223.284 44.4067 223.034 44.6321 222.732 44.7812C222.431 44.9271 222.075 45 221.664 45H221.107ZM234.542 45V38.8253H232.912C232.497 38.8253 232.179 38.9214 231.957 39.1136C231.735 39.3059 231.626 39.5445 231.629 39.8295C231.626 40.1146 231.73 40.3499 231.942 40.5355C232.154 40.7211 232.458 40.8139 232.852 40.8139H235.109V42.1264H232.852C232.242 42.1264 231.715 42.0303 231.271 41.8381C230.827 41.6458 230.486 41.3741 230.247 41.0227C230.008 40.6714 229.889 40.2604 229.889 39.7898C229.889 39.2992 230.01 38.8733 230.252 38.5121C230.497 38.1475 230.845 37.8658 231.296 37.6669C231.75 37.4647 232.289 37.3636 232.912 37.3636H236.228V45H234.542ZM229.611 45L231.743 41.0824H233.518L231.381 45H229.611ZM237.185 38.8402V37.3636H243.867V38.8402H241.396V45H239.656V38.8402H237.185ZM246.518 39.8494H248.77C249.744 39.8494 250.498 40.0864 251.032 40.5604C251.566 41.0343 251.834 41.6558 251.837 42.4247C251.834 42.9252 251.711 43.3693 251.469 43.7571C251.231 44.1449 250.883 44.4498 250.425 44.6719C249.971 44.8906 249.42 45 248.77 45H245.3V37.3636H247.035V43.5234H248.77C249.161 43.5234 249.482 43.424 249.734 43.2251C249.986 43.023 250.112 42.7644 250.112 42.4496C250.112 42.1181 249.986 41.848 249.734 41.6392C249.482 41.4304 249.161 41.326 248.77 41.326H246.518V39.8494ZM79.9247 62V54.3636H86.3729V62H84.6378V55.8402H81.6449V62H79.9247ZM90.421 62.1541C89.9371 62.1541 89.5012 62.0679 89.1135 61.8956C88.729 61.7199 88.4241 61.4614 88.1987 61.12C87.9766 60.7786 87.8656 60.3577 87.8656 59.8572C87.8656 59.4264 87.9451 59.0701 88.1042 58.7884C88.2633 58.5066 88.4804 58.2812 88.7555 58.1122C89.0306 57.9432 89.3405 57.8156 89.6852 57.7294C90.0332 57.6399 90.3928 57.5753 90.764 57.5355C91.2115 57.4891 91.5744 57.4477 91.8528 57.4112C92.1312 57.3714 92.3334 57.3118 92.4593 57.2322C92.5886 57.1494 92.6532 57.0218 92.6532 56.8494V56.8196C92.6532 56.4451 92.5422 56.1551 92.3201 55.9496C92.0981 55.7441 91.7782 55.6413 91.3606 55.6413C90.9198 55.6413 90.5701 55.7375 90.3116 55.9297C90.0564 56.1219 89.8841 56.349 89.7946 56.6108L88.1142 56.3722C88.2467 55.9081 88.4655 55.5204 88.7704 55.2088C89.0753 54.8939 89.4482 54.6586 89.889 54.5028C90.3298 54.3438 90.8171 54.2642 91.3507 54.2642C91.7186 54.2642 92.0848 54.3073 92.4494 54.3935C92.814 54.4796 93.1471 54.6222 93.4487 54.821C93.7503 55.0166 93.9922 55.2834 94.1745 55.6214C94.3601 55.9595 94.4529 56.3821 94.4529 56.8892V62H92.7228V60.951H92.6632C92.5538 61.1631 92.3997 61.362 92.2008 61.5476C92.0053 61.7299 91.7583 61.8774 91.46 61.9901C91.1651 62.0994 90.8187 62.1541 90.421 62.1541ZM90.8883 60.8317C91.2496 60.8317 91.5628 60.7604 91.8279 60.6179C92.0931 60.4721 92.2969 60.2798 92.4395 60.0412C92.5853 59.8026 92.6582 59.5424 92.6582 59.2607V58.3608C92.6019 58.4072 92.5057 58.4503 92.3699 58.4901C92.2373 58.5298 92.0881 58.5646 91.9224 58.5945C91.7567 58.6243 91.5926 58.6508 91.4302 58.674C91.2678 58.6972 91.127 58.7171 91.0076 58.7337C90.7392 58.7701 90.4989 58.8298 90.2868 58.9126C90.0746 58.9955 89.9073 59.1115 89.7846 59.2607C89.662 59.4065 89.6007 59.5954 89.6007 59.8274C89.6007 60.1589 89.7217 60.4091 89.9636 60.5781C90.2056 60.7472 90.5138 60.8317 90.8883 60.8317ZM99.5936 62.1491C98.8313 62.1491 98.1767 61.9818 97.6298 61.647C97.0862 61.3123 96.667 60.8499 96.372 60.2599C96.0803 59.6667 95.9345 58.9839 95.9345 58.2116C95.9345 57.4361 96.0836 56.7517 96.3819 56.1584C96.6802 55.5618 97.1011 55.0978 97.6447 54.7663C98.1916 54.4316 98.8379 54.2642 99.5836 54.2642C100.203 54.2642 100.752 54.3786 101.229 54.6072C101.71 54.8326 102.093 55.1525 102.378 55.5668C102.663 55.9777 102.825 56.4583 102.865 57.0085H101.145C101.075 56.6406 100.909 56.334 100.648 56.0888C100.389 55.8402 100.043 55.7159 99.6085 55.7159C99.2406 55.7159 98.9174 55.8153 98.639 56.0142C98.3606 56.2098 98.1435 56.4915 97.9877 56.8594C97.8353 57.2273 97.7591 57.6681 97.7591 58.1818C97.7591 58.7022 97.8353 59.1496 97.9877 59.5241C98.1402 59.8954 98.354 60.1821 98.6291 60.3842C98.9075 60.5831 99.234 60.6825 99.6085 60.6825C99.8736 60.6825 100.111 60.6328 100.319 60.5334C100.532 60.4306 100.709 60.2831 100.851 60.0909C100.994 59.8987 101.092 59.665 101.145 59.3899H102.865C102.822 59.9302 102.663 60.4091 102.388 60.8267C102.113 61.241 101.738 61.5658 101.264 61.8011C100.79 62.0331 100.233 62.1491 99.5936 62.1491ZM104.343 62V54.3636H110.791V62H109.056V55.8402H106.063V62H104.343ZM115.972 62.1491C115.227 62.1491 114.58 61.9851 114.034 61.657C113.487 61.3288 113.062 60.8698 112.761 60.2798C112.463 59.6899 112.313 59.0005 112.313 58.2116C112.313 57.4228 112.463 56.7318 112.761 56.1385C113.062 55.5452 113.487 55.0845 114.034 54.7564C114.58 54.4283 115.227 54.2642 115.972 54.2642C116.718 54.2642 117.365 54.4283 117.911 54.7564C118.458 55.0845 118.881 55.5452 119.179 56.1385C119.481 56.7318 119.632 57.4228 119.632 58.2116C119.632 59.0005 119.481 59.6899 119.179 60.2798C118.881 60.8698 118.458 61.3288 117.911 61.657C117.365 61.9851 116.718 62.1491 115.972 62.1491ZM115.982 60.7074C116.387 60.7074 116.725 60.5964 116.997 60.3743C117.268 60.1489 117.471 59.8473 117.603 59.4695C117.739 59.0916 117.807 58.6707 117.807 58.2067C117.807 57.7393 117.739 57.3168 117.603 56.9389C117.471 56.5578 117.268 56.2545 116.997 56.0291C116.725 55.8037 116.387 55.6911 115.982 55.6911C115.568 55.6911 115.223 55.8037 114.948 56.0291C114.677 56.2545 114.473 56.5578 114.337 56.9389C114.204 57.3168 114.138 57.7393 114.138 58.2067C114.138 58.6707 114.204 59.0916 114.337 59.4695C114.473 59.8473 114.677 60.1489 114.948 60.3743C115.223 60.5964 115.568 60.7074 115.982 60.7074ZM121.159 64.8636V54.3636H122.929V55.6264H123.033C123.126 55.4408 123.257 55.2436 123.426 55.0348C123.595 54.8227 123.824 54.642 124.112 54.4929C124.401 54.3404 124.768 54.2642 125.216 54.2642C125.806 54.2642 126.338 54.415 126.812 54.7166C127.289 55.0149 127.667 55.4574 127.945 56.044C128.227 56.6274 128.368 57.3433 128.368 58.1918C128.368 59.0303 128.23 59.7429 127.955 60.3295C127.68 60.9162 127.306 61.3636 126.832 61.6719C126.358 61.9801 125.821 62.1342 125.221 62.1342C124.783 62.1342 124.42 62.0613 124.132 61.9155C123.844 61.7696 123.612 61.594 123.436 61.3885C123.264 61.1797 123.129 60.9825 123.033 60.7969H122.959V64.8636H121.159ZM122.924 58.1818C122.924 58.6757 122.994 59.1082 123.133 59.4794C123.275 59.8506 123.479 60.1406 123.744 60.3494C124.013 60.5549 124.338 60.6577 124.719 60.6577C125.116 60.6577 125.45 60.5516 125.718 60.3395C125.987 60.1241 126.189 59.8307 126.325 59.4595C126.464 59.085 126.533 58.6591 126.533 58.1818C126.533 57.7079 126.465 57.2869 126.33 56.919C126.194 56.5511 125.991 56.2628 125.723 56.054C125.455 55.8452 125.12 55.7408 124.719 55.7408C124.334 55.7408 124.008 55.8419 123.739 56.044C123.471 56.2462 123.267 56.5296 123.128 56.8942C122.992 57.2588 122.924 57.688 122.924 58.1818ZM129.068 55.8402V54.3636H135.749V55.8402H133.279V62H131.539V55.8402H129.068Z" fill="#404040"/>
<defs>
<filter id="filter0_d_58_19" x="0" y="0" width="311" height="105" filterUnits="userSpaceOnUse" color-interpolation-filters="sRGB">
<feFlood flood-opacity="0" result="BackgroundImageFix"/>
<feColorMatrix in="SourceAlpha" type="matrix" values="0 0 0 0 0 0 0 0 0 0 0 0 0 0 0 0 0 0 127 0" result="hardAlpha"/>
<feOffset/>
<feGaussianBlur stdDeviation="4"/>
<feComposite in2="hardAlpha" operator="out"/>
<feColorMatrix type="matrix" values="0 0 0 0 0 0 0 0 0 0 0 0 0 0 0 0 0 0 0.25 0"/>
<feBlend mode="normal" in2="BackgroundImageFix" result="effect1_dropShadow_58_19"/>
<feBlend mode="normal" in="SourceGraphic" in2="effect1_dropShadow_58_19" result="shape"/>
</filter>
<linearGradient id="paint0_linear_58_19" x1="32.2425" y1="57.3793" x2="64" y2="48" gradientUnits="userSpaceOnUse">
<stop stop-color="#44CCFF"/>
<stop offset="0.662" stop-color="#5533EE"/>
<stop offset="1" stop-color="#9933DD"/>
</linearGradient>
<radialGradient id="paint1_radial_58_19" cx="0" cy="0" r="1" gradientUnits="userSpaceOnUse" gradientTransform="translate(27.1435 14.1893) rotate(51.356) scale(43.6866 18)">
<stop stop-color="#0000FF"/>
<stop offset="1" stop-opacity="0"/>
</radialGradient>
<clipPath id="clip0_58_19">
<rect width="36" height="36" fill="white" transform="translate(28 30)"/>
</clipPath>
</defs>
</svg>
