<svg width="120" height="40" viewBox="0 0 120 40" fill="none" xmlns="http://www.w3.org/2000/svg">
<g clip-path="url(#clip0_4_88)">
<path d="M112 0H8C3.58172 0 0 3.58172 0 8V32C0 36.4183 3.58172 40 8 40H112C116.418 40 120 36.4183 120 32V8C120 3.58172 116.418 0 112 0Z" fill="#E0E0E0"/>
<path fill-rule="evenodd" clip-rule="evenodd" d="M48.102 11.411C48.102 12.18 47.839 12.841 47.319 13.373C46.799 13.907 46.142 14.177 45.371 14.176C44.599 14.176 43.942 13.907 43.423 13.373C42.902 12.84 42.64 12.18 42.641 11.411C42.64 10.642 42.901 9.981 43.423 9.449C43.943 8.914 44.599 8.645 45.371 8.646C46.139 8.645 46.793 8.916 47.316 9.453C47.839 9.988 48.102 10.647 48.102 11.411ZM44.034 12.823C43.67 12.454 43.488 11.99 43.487 11.411C43.488 10.831 43.67 10.368 44.034 9.999C44.401 9.629 44.839 9.449 45.371 9.447C45.901 9.448 46.341 9.629 46.708 9.999C47.072 10.368 47.254 10.832 47.255 11.411C47.254 11.991 47.072 12.454 46.708 12.823C46.341 13.193 45.902 13.373 45.371 13.375C45.1221 13.3802 44.8749 13.3338 44.6448 13.2388C44.4147 13.1438 44.2068 13.0022 44.034 12.823ZM37.402 13.26C37.796 12.907 38.003 12.306 38.004 11.438V8.76H41.61V13.26H42.185V15.15H41.381V14.061H37.649V15.15H36.846V13.26H37.402ZM38.835 11.381L38.836 11.452C38.836 12.175 38.697 12.779 38.416 13.26H40.777V9.561H38.835V11.381Z" fill="#404040"/>
<path d="M52.536 13.92C52.1621 14.0923 51.7547 14.1797 51.343 14.176C50.567 14.176 49.905 13.911 49.378 13.385C48.848 12.859 48.583 12.194 48.584 11.411C48.583 10.628 48.848 9.963 49.378 9.438C49.905 8.911 50.567 8.645 51.343 8.646C52.139 8.645 52.8 8.936 53.298 9.514L53.351 9.574L53.293 9.631L52.765 10.141L52.705 10.067C52.371 9.653 51.925 9.449 51.343 9.447C50.801 9.448 50.355 9.627 49.983 9.989C49.615 10.351 49.431 10.817 49.431 11.411C49.431 12.005 49.615 12.472 49.983 12.833C50.354 13.195 50.801 13.373 51.343 13.375C51.938 13.374 52.436 13.14 52.86 12.659L52.92 12.59L53.5 13.169L53.45 13.229C53.201 13.5252 52.8887 13.7607 52.536 13.92ZM56.145 9.561V14.061H55.312V9.561H53.875V8.76H57.583V9.561H56.145ZM60.002 11.606L61.202 8.761H62.168L60.167 13.209C59.894 13.839 59.457 14.179 58.889 14.176C58.717 14.176 58.535 14.135 58.345 14.055L58.275 14.025L58.295 13.953L58.498 13.239L58.593 13.292C58.692 13.348 58.791 13.375 58.895 13.375C59.0025 13.3824 59.1097 13.3566 59.202 13.301C59.266 13.256 59.339 13.159 59.407 13.009L59.577 12.636L57.807 8.761H58.773L60.002 11.606ZM62.701 14.061V8.76H66.596V14.061H65.763V9.561H63.533V14.061H62.701ZM67.603 14.061V8.76H68.436V10.96H70.838V8.76H71.671V14.061H70.838V11.747H68.436V14.061H67.603Z" fill="#404040"/>
<path fill-rule="evenodd" clip-rule="evenodd" d="M77.812 11.411C77.813 12.18 77.55 12.841 77.03 13.373C76.51 13.907 75.853 14.177 75.082 14.176C74.31 14.176 73.653 13.907 73.134 13.373C72.613 12.84 72.351 12.18 72.351 11.411C72.351 10.642 72.613 9.981 73.134 9.449C73.654 8.914 74.31 8.645 75.082 8.646C75.849 8.645 76.504 8.916 77.027 9.453C77.549 9.988 77.813 10.647 77.812 11.411ZM73.198 11.411C73.199 11.991 73.381 12.454 73.745 12.823C74.112 13.193 74.55 13.373 75.082 13.375C75.612 13.374 76.052 13.193 76.418 12.823C76.783 12.454 76.965 11.99 76.966 11.411C76.965 10.831 76.783 10.368 76.418 9.999C76.2453 9.81972 76.0374 9.67813 75.8073 9.58313C75.5772 9.48813 75.3299 9.44178 75.081 9.447C74.551 9.448 74.111 9.629 73.745 9.999C73.381 10.368 73.199 10.832 73.198 11.411ZM83.259 11.316C83.464 11.411 83.639 11.55 83.779 11.731C83.952 11.955 84.042 12.221 84.041 12.514C84.041 12.955 83.874 13.334 83.549 13.624C83.225 13.914 82.836 14.062 82.395 14.061H80.348V8.76H82.295C82.7024 8.75458 83.0966 8.90479 83.397 9.18C83.71 9.459 83.869 9.82 83.868 10.243C83.868 10.501 83.8 10.735 83.663 10.936C83.5582 11.0911 83.4202 11.2209 83.259 11.316ZM81.179 13.26H82.424C82.5281 13.264 82.6319 13.2448 82.7277 13.2038C82.8235 13.1628 82.909 13.101 82.978 13.023C83.114 12.8822 83.1909 12.6947 83.193 12.499C83.1904 12.3042 83.1114 12.1181 82.973 11.981C82.8991 11.9028 82.8092 11.8415 82.7095 11.8011C82.6098 11.7607 82.5025 11.7423 82.395 11.747H81.18L81.179 13.26ZM81.179 10.96H82.294C82.525 10.958 82.696 10.887 82.832 10.74C82.9598 10.6114 83.033 10.4383 83.036 10.257C83.034 10.0775 82.9631 9.9057 82.838 9.777C82.7736 9.70529 82.6941 9.64873 82.6052 9.61138C82.5164 9.57404 82.4203 9.55683 82.324 9.561H81.18V10.959L81.179 10.96Z" fill="#404040"/>
<path d="M93.16 28.513H94.76V17.824H93.16V28.513ZM107.576 21.675L105.741 26.309H105.686L103.782 21.675H102.058L104.913 28.152L103.285 31.755H104.955L109.355 21.675H107.576ZM98.499 27.299C97.974 27.299 97.244 27.038 97.244 26.391C97.244 25.566 98.154 25.251 98.94 25.251C99.644 25.251 99.975 25.401 100.403 25.608C100.343 26.0722 100.117 26.4991 99.7675 26.8099C99.4175 27.1206 98.967 27.2944 98.499 27.299ZM98.692 21.441C97.534 21.441 96.334 21.95 95.837 23.078L97.257 23.668C97.561 23.078 98.127 22.885 98.72 22.885C99.548 22.885 100.389 23.38 100.403 24.26V24.37C99.8886 24.0975 99.3151 23.9557 98.733 23.957C97.203 23.957 95.643 24.797 95.643 26.364C95.643 27.794 96.899 28.716 98.306 28.716C99.382 28.716 99.975 28.234 100.348 27.671H100.403V28.496H101.947V24.397C101.947 22.5 100.527 21.441 98.692 21.441ZM88.802 22.976H86.525V19.312H88.802C89.998 19.312 90.677 20.299 90.677 21.144C90.677 21.972 89.998 22.976 88.802 22.976ZM88.76 17.824H84.926V28.514H86.526V24.464H88.76C90.534 24.464 92.278 23.184 92.278 21.144C92.278 19.104 90.534 17.824 88.76 17.824ZM67.85 27.301C66.744 27.301 65.818 26.378 65.818 25.111C65.818 23.83 66.744 22.893 67.85 22.893C68.941 22.893 69.798 23.83 69.798 25.111C69.798 26.378 68.941 27.301 67.85 27.301ZM69.687 22.273H69.632C69.272 21.846 68.582 21.461 67.712 21.461C65.887 21.461 64.216 23.058 64.216 25.111C64.216 27.149 65.887 28.734 67.711 28.734C68.581 28.734 69.273 28.348 69.631 27.907H69.687V28.431C69.687 29.822 68.941 30.566 67.739 30.566C66.758 30.566 66.149 29.863 65.901 29.271L64.506 29.85C64.906 30.814 65.97 31.998 67.739 31.998C69.619 31.998 71.207 30.896 71.207 28.21V21.681H69.687V22.273ZM72.312 28.513H73.915V17.823H72.312V28.513ZM76.278 24.987C76.237 23.582 77.37 22.866 78.185 22.866C78.821 22.866 79.359 23.182 79.539 23.637L76.278 24.987ZM81.252 23.775C80.949 22.962 80.022 21.461 78.129 21.461C76.25 21.461 74.689 22.935 74.689 25.097C74.689 27.136 76.237 28.734 78.309 28.734C79.981 28.734 80.949 27.714 81.349 27.122L80.106 26.295C79.691 26.902 79.125 27.301 78.309 27.301C77.494 27.301 76.914 26.929 76.54 26.199L81.418 24.188L81.252 23.775ZM42.392 22.576V24.119H46.096C45.986 24.987 45.695 25.621 45.253 26.061C44.714 26.599 43.871 27.191 42.393 27.191C40.113 27.191 38.33 25.359 38.33 23.086C38.33 20.813 40.113 18.981 42.393 18.981C43.623 18.981 44.52 19.463 45.183 20.083L46.275 18.995C45.35 18.113 44.12 17.438 42.393 17.438C39.27 17.438 36.645 19.973 36.645 23.086C36.645 26.199 39.27 28.734 42.393 28.734C44.078 28.734 45.35 28.183 46.344 27.149C47.367 26.13 47.684 24.698 47.684 23.541C47.684 23.182 47.657 22.852 47.602 22.576H42.392ZM51.895 27.301C50.789 27.301 49.835 26.392 49.835 25.097C49.835 23.788 50.789 22.893 51.895 22.893C53 22.893 53.953 23.788 53.953 25.097C53.953 26.392 53 27.301 51.895 27.301ZM51.895 21.461C49.877 21.461 48.233 22.99 48.233 25.097C48.233 27.191 49.877 28.734 51.895 28.734C53.912 28.734 55.556 27.191 55.556 25.097C55.556 22.99 53.912 21.461 51.895 21.461ZM59.882 27.301C58.777 27.301 57.824 26.392 57.824 25.097C57.824 23.788 58.777 22.893 59.883 22.893C60.988 22.893 61.941 23.788 61.941 25.097C61.941 26.392 60.988 27.301 59.882 27.301ZM59.882 21.461C57.865 21.461 56.221 22.99 56.221 25.097C56.221 27.191 57.865 28.734 59.883 28.734C61.9 28.734 63.544 27.191 63.544 25.097C63.544 22.99 61.899 21.461 59.882 21.461Z" fill="#404040"/>
<path fill-rule="evenodd" clip-rule="evenodd" d="M22.458 19.218L11.113 8C11.3616 8.01117 11.6036 8.08403 11.817 8.212L25.567 16.121L22.457 19.217L22.458 19.218ZM10 9.158C10 8.918 10.062 8.702 10.164 8.522L21.704 19.952L10.1 31.431C10.034 31.281 10 31.12 10.001 30.956V9.158H10ZM26.518 16.658L23.194 19.951L26.517 23.229L30.577 20.913C31.154 20.582 31.237 20.159 31.231 19.936C31.225 19.564 30.991 19.218 30.593 19.006C30.301 18.85 28.421 17.76 27.143 17.021L26.518 16.658ZM11.013 31.986L22.457 20.687L25.583 23.784L21.113 26.344L11.603 31.824C11.4222 31.9246 11.2198 31.9802 11.013 31.986Z" fill="#595959"/>
</g>
<defs>
<clipPath id="clip0_4_88">
<rect width="120" height="40" fill="white"/>
</clipPath>
</defs>
</svg>
