<svg width="120" height="40" viewBox="0 0 120 40" fill="none" xmlns="http://www.w3.org/2000/svg">
<g clip-path="url(#clip0_4_95)">
<path d="M112 0H8C3.58172 0 0 3.58172 0 8V32C0 36.4183 3.58172 40 8 40H112C116.418 40 120 36.4183 120 32V8C120 3.58172 116.418 0 112 0Z" fill="#E0E0E0"/>
<mask id="mask0_4_95" style="mask-type:luminance" maskUnits="userSpaceOnUse" x="10" y="8" width="100" height="24">
<path d="M110 8H10V32H110V8Z" fill="white"/>
</mask>
<g mask="url(#mask0_4_95)">
<path fill-rule="evenodd" clip-rule="evenodd" d="M20.667 31.0779C15.638 31.0779 13.124 31.0779 11.562 29.521C10 27.964 10 25.457 10 20.444V19.558C10 14.545 10 12.039 11.562 10.482C13.124 8.92395 15.638 8.92395 20.667 8.92395H21.556C26.584 8.92395 29.098 8.92395 30.66 10.482C32.222 12.039 32.222 14.545 32.222 19.558V20.444C32.222 25.457 32.222 27.964 30.66 29.521C29.098 31.0779 26.584 31.0779 21.556 31.0779H20.667Z" fill="#595959"/>
<path d="M25.664 23.28L27.156 23.651C27.836 23.821 28.495 23.311 28.495 22.615V15.4C28.495 14.788 28.075 14.254 27.477 14.105L23.17 13.032C22.49 12.863 21.83 13.373 21.83 14.069V15.369L19.117 14.693C18.437 14.523 17.777 15.034 17.777 15.73V17.03L15.064 16.355C14.384 16.185 13.724 16.695 13.724 17.391V24.605C13.724 25.218 14.144 25.752 14.744 25.901L19.05 26.973C19.73 27.143 20.389 26.633 20.389 25.937V24.637L21.064 24.804L20.388 24.634L20.389 18.733C20.389 18.124 20.004 17.771 19.864 17.663C19.8508 17.6532 19.8419 17.6387 19.8391 17.6225C19.8363 17.6063 19.8399 17.5896 19.849 17.576C19.8582 17.5629 19.8712 17.5529 19.8862 17.5476C19.9013 17.5422 19.9176 17.5416 19.933 17.546C20.501 17.716 21.043 18.296 21.098 19.026L21.285 24.536C21.291 24.716 21.408 24.873 21.577 24.932L23.103 25.312C23.783 25.482 24.443 24.972 24.443 24.276V17.072C24.443 16.464 24.057 16.111 23.917 16.002C23.9043 15.992 23.8957 15.9777 23.8929 15.9619C23.8901 15.946 23.8934 15.9296 23.902 15.916C23.9111 15.9025 23.9243 15.8924 23.9396 15.887C23.9549 15.8816 23.9715 15.8812 23.987 15.886C24.555 16.056 25.097 16.636 25.152 17.366L25.339 22.875C25.3423 22.9685 25.3757 23.0584 25.4342 23.1314C25.4928 23.2044 25.5734 23.2565 25.664 23.28Z" fill="white"/>
<path fill-rule="evenodd" clip-rule="evenodd" d="M64.596 26.2539C64.596 28.1789 62.896 29.3399 60.839 29.3399C58.829 29.3399 57.16 28.1949 56.635 26.3769L58.428 26.0709C59 27.0949 59.649 27.6599 60.855 27.6599C61.905 27.6599 62.695 27.1699 62.695 26.3149C62.695 25.3369 61.643 24.9709 60.468 24.5889C58.938 24.0849 57.16 23.4889 57.16 21.3189C57.16 19.3939 58.737 18.2639 60.716 18.2639C62.632 18.2639 64.039 19.3339 64.596 21.0139L62.833 21.3039C62.447 20.4479 61.751 19.9439 60.778 19.9439C59.85 19.9439 59.062 20.3869 59.062 21.2279C59.062 22.1899 60.097 22.5569 61.288 22.9539C62.818 23.4739 64.596 24.0999 64.596 26.2539ZM43.896 25.0939C45.52 24.6799 46.586 23.4429 46.586 21.8239C46.586 19.8219 44.979 18.4159 42.722 18.4159H38.703V29.1879H40.558V25.2299H41.872L44.747 29.1869H46.927L43.897 25.0919L43.896 25.0939ZM42.722 20.0969C43.882 20.0969 44.685 20.7999 44.685 21.8229C44.685 22.8469 43.882 23.5499 42.722 23.5499H40.558V20.0969H42.722ZM51.101 29.3399C52.075 29.3399 52.971 28.8359 53.481 27.9959L53.837 29.1879H55.167V21.2429H53.389V25.8419C53.389 26.9719 52.631 27.7669 51.596 27.7669C50.576 27.7669 49.864 26.9719 49.864 25.8419V21.2419H48.087V26.0399C48.087 27.9499 49.385 29.3399 51.101 29.3399ZM69.431 27.6599C68.829 27.6599 68.535 27.3699 68.535 26.7739V22.7699H70.931V21.2419H68.535V18.9499H67.205L66.757 21.2419H65.443V22.7699H66.757V26.7729C66.757 28.3309 67.669 29.1869 69.432 29.1869H70.931L71.086 27.6589H69.432L69.431 27.6599ZM80.462 25.2149C80.462 27.6289 78.685 29.3399 76.165 29.3399C73.645 29.3399 71.868 27.6299 71.868 25.2149C71.868 22.8009 73.645 21.0899 76.165 21.0899C78.685 21.0899 80.462 22.8009 80.462 25.2149ZM73.722 25.2149C73.722 26.7119 74.712 27.7359 76.165 27.7359C77.618 27.7359 78.607 26.7119 78.607 25.2159C78.607 23.7179 77.617 22.6939 76.165 22.6939C74.712 22.6939 73.722 23.7179 73.722 25.2149ZM83.786 29.1879V24.4979C83.786 23.4879 84.28 22.9229 85.362 22.9229H86.382L86.228 21.2429H85.888C84.945 21.2429 84.218 21.5029 83.678 22.3889L83.338 21.2429H82.008V29.1879H83.786ZM90.956 21.0899C93.398 21.0899 95.13 22.8319 95.13 25.1239C95.13 25.3369 95.114 25.5209 95.099 25.6889H88.638C88.808 26.9109 89.704 27.7359 91.064 27.7359C92.007 27.7359 92.749 27.3389 93.135 26.7739L94.805 27.0489C94.202 28.5609 92.625 29.3399 90.956 29.3399C88.514 29.3399 86.783 27.6139 86.783 25.2149C86.783 22.8169 88.513 21.0899 90.956 21.0899ZM93.198 24.3139C92.904 23.3209 92.069 22.6179 90.956 22.6179C89.874 22.6179 89.04 23.2899 88.746 24.3139H93.198Z" fill="#404040"/>
<path d="M37.832 15.8599V13.7169H37.974C38.157 13.7169 38.304 13.6729 38.414 13.5839C38.524 13.4949 38.616 13.3169 38.69 13.0499C38.769 12.7779 38.829 12.3779 38.87 11.8499L39.1 8.93091H42.594V13.7169H43.404V15.8589H42.594V14.4629H38.643V15.8589L37.832 15.8599ZM41.783 13.7169V9.67691H39.847L39.682 11.8889C39.619 12.7729 39.456 13.3829 39.194 13.7169H41.783ZM45.903 14.5419C45.488 14.5419 45.118 14.4529 44.793 14.2749C44.4735 14.1031 44.2088 13.845 44.029 13.5299C43.8421 13.1975 43.7472 12.8212 43.754 12.4399C43.754 12.0309 43.846 11.6679 44.029 11.3489C44.213 11.0289 44.467 10.7809 44.793 10.6029C45.1328 10.4164 45.5154 10.3219 45.903 10.3289C46.317 10.3289 46.687 10.4199 47.013 10.6029C47.338 10.7809 47.592 11.0299 47.776 11.3489C47.959 11.6679 48.051 12.0309 48.051 12.4389C48.051 12.8469 47.959 13.2109 47.776 13.5289C47.592 13.8489 47.337 14.0969 47.012 14.2749C46.6707 14.4568 46.2897 14.5487 45.903 14.5419ZM45.903 13.8359C46.301 13.8359 46.623 13.7079 46.871 13.4509C47.122 13.1949 47.248 12.8579 47.248 12.4389C47.248 12.0209 47.122 11.6829 46.871 11.4269C46.624 11.1659 46.301 11.0349 45.903 11.0349C45.503 11.0349 45.181 11.1649 44.935 11.4269C44.688 11.6829 44.565 12.0209 44.565 12.4389C44.565 12.8519 44.688 13.1889 44.935 13.4509C45.181 13.7079 45.504 13.8359 45.903 13.8359ZM50.676 14.5419C50.272 14.5419 49.907 14.4529 49.582 14.2749C49.2678 14.0979 49.0089 13.8373 48.834 13.5219C48.6522 13.1903 48.5599 12.817 48.566 12.4389C48.566 12.0309 48.656 11.6679 48.834 11.3489C49.012 11.0289 49.262 10.7809 49.582 10.6029C49.902 10.4199 50.266 10.3289 50.676 10.3289C51.111 10.3289 51.499 10.4329 51.84 10.6419C52.187 10.8519 52.433 11.1519 52.58 11.5449L51.856 11.6619C51.7565 11.4682 51.6002 11.3094 51.408 11.2069C51.1991 11.0896 50.9626 11.0302 50.723 11.0349C50.324 11.0349 49.999 11.1649 49.747 11.4269C49.5 11.6889 49.377 12.0259 49.377 12.4389C49.377 12.8519 49.5 13.1889 49.747 13.4509C49.999 13.7079 50.324 13.8359 50.723 13.8359C50.99 13.8359 51.227 13.7759 51.431 13.6559C51.641 13.5349 51.793 13.3759 51.888 13.1759L52.612 13.2939C52.4741 13.6804 52.207 14.0074 51.856 14.2199C51.5005 14.4355 51.0917 14.547 50.676 14.5419ZM54.913 14.4629H54.141V11.1129H52.732V10.4069H56.322V11.1129H54.912L54.913 14.4629ZM59.886 10.4069H60.681L58.981 15.0749C58.855 15.4249 58.69 15.6789 58.485 15.8359C58.28 15.9929 58.007 16.0719 57.666 16.0719H57.06L56.99 15.3659H57.714C57.8402 15.3736 57.9652 15.3376 58.068 15.2639C58.152 15.2009 58.223 15.0879 58.28 14.9259L58.367 14.6909L56.557 10.4069H57.383L58.673 13.5369H58.784L59.886 10.4069ZM62.074 14.4629H61.303V10.4069H64.766V14.4629H63.994V11.1129H62.074V14.4629ZM68.477 12.0619V10.4069H69.248V14.4629H68.478V12.7699H66.518V14.4639H65.746V10.4079H66.517V12.0629L68.477 12.0619ZM72.147 14.5419C71.732 14.5419 71.362 14.4529 71.037 14.2749C70.7175 14.1031 70.4528 13.8449 70.273 13.5299C70.0861 13.1975 69.9912 12.8212 69.998 12.4399C69.998 12.0309 70.09 11.6679 70.273 11.3489C70.457 11.0289 70.712 10.7809 71.037 10.6029C71.3768 10.4164 71.7594 10.3219 72.147 10.3289C72.561 10.3289 72.931 10.4199 73.257 10.6029C73.582 10.7809 73.837 11.0299 74.02 11.3489C74.203 11.6679 74.295 12.0309 74.295 12.4389C74.295 12.8469 74.203 13.2109 74.02 13.5289C73.836 13.8489 73.582 14.0969 73.256 14.2749C72.9147 14.4568 72.5337 14.5487 72.147 14.5419ZM72.147 13.8359C72.545 13.8359 72.868 13.7079 73.115 13.4509C73.367 13.1949 73.493 12.8579 73.493 12.4389C73.493 12.0209 73.367 11.6829 73.115 11.4269C72.868 11.1659 72.545 11.0349 72.147 11.0349C71.747 11.0349 71.425 11.1649 71.179 11.4269C70.932 11.6829 70.809 12.0209 70.809 12.4389C70.809 12.8519 70.932 13.1889 71.179 13.4509C71.425 13.7079 71.748 13.8359 72.147 13.8359ZM79.555 12.3369C79.765 12.4149 79.933 12.5439 80.059 12.7209C80.1914 12.8971 80.2608 13.1126 80.256 13.3329C80.2576 13.5421 80.1909 13.7461 80.066 13.9139C79.946 14.0869 79.776 14.2229 79.555 14.3219C79.335 14.4159 79.083 14.4629 78.799 14.4629H76.855V10.4069H78.729C78.996 10.4069 79.235 10.4539 79.445 10.5479C79.655 10.6419 79.817 10.7699 79.933 10.9319C80.053 11.0949 80.113 11.2799 80.113 11.4899C80.113 11.6879 80.063 11.8609 79.964 12.0069C79.8624 12.1541 79.7204 12.2688 79.555 12.3369ZM77.627 11.0579V12.0549H78.729C78.8866 12.0609 79.0415 12.0137 79.169 11.9209C79.2241 11.8786 79.2685 11.8241 79.2987 11.7616C79.3289 11.699 79.3441 11.6303 79.343 11.5609C79.3444 11.4912 79.3294 11.422 79.2992 11.3592C79.2689 11.2963 79.2243 11.2414 79.169 11.1989C79.0435 11.1016 78.8877 11.0517 78.729 11.0579H77.627ZM78.799 13.8119C78.9778 13.8204 79.1537 13.7647 79.295 13.6549C79.3561 13.6062 79.405 13.544 79.438 13.4732C79.4709 13.4025 79.487 13.325 79.485 13.2469C79.487 13.1688 79.4709 13.0914 79.438 13.0206C79.405 12.9498 79.3561 12.8876 79.295 12.8389C79.1537 12.7291 78.9778 12.6734 78.799 12.6819H77.627V13.8119H78.799Z" fill="#404040"/>
</g>
</g>
<defs>
<clipPath id="clip0_4_95">
<rect width="120" height="40" fill="white"/>
</clipPath>
</defs>
</svg>
