<svg width="15" height="14" viewBox="0 0 15 14" fill="none" xmlns="http://www.w3.org/2000/svg">
<path d="M13 6.5C13 10.0899 10.0899 13 6.5 13C2.91015 13 0 10.0899 0 6.5C0 2.91015 2.91015 0 6.5 0C10.0899 0 13 2.91015 13 6.5ZM1.625 6.5C1.625 9.19239 3.80761 11.375 6.5 11.375C9.19239 11.375 11.375 9.19239 11.375 6.5C11.375 3.80761 9.19239 1.625 6.5 1.625C3.80761 1.625 1.625 3.80761 1.625 6.5Z" fill="#CCCCCC"/>
<path d="M13.3405 13.7531C13.7593 14.118 14.3894 14.0767 14.7479 13.6607C15.1064 13.2448 15.0575 12.6118 14.6388 12.2469L13.9897 13L13.3405 13.7531ZM10.6686 10.1059L10.0195 10.859L13.3405 13.7531L13.9897 13L14.6388 12.2469L11.3178 9.35279L10.6686 10.1059Z" fill="#CCCCCC"/>
</svg>
